<svg width="110" height="17" viewBox="0 0 110 17" fill="none" xmlns="http://www.w3.org/2000/svg">
<g clip-path="url(#clip0_14502_3)">
<path d="M78.0126 13.6975L82.1626 16.2075C82.9226 16.6675 83.8526 15.9875 83.6526 15.1275L82.5526 10.4075L86.2226 7.2275C86.8926 6.6475 86.5326 5.5475 85.6526 5.4775L80.8226 5.0675L78.9326 0.6075C78.5926 -0.2025 77.4327 -0.2025 77.0926 0.6075L75.2026 5.0575L70.3726 5.4675C69.4926 5.5375 69.1326 6.6375 69.8026 7.2175L73.4726 10.3975L72.3726 15.1175C72.1726 15.9775 73.1026 16.6575 73.8626 16.1975L78.0126 13.6975Z" fill="#FCFF51"/>
</g>
<g clip-path="url(#clip1_14502_3)">
<path d="M9.01265 13.6975L13.1626 16.2075C13.9226 16.6675 14.8526 15.9875 14.6526 15.1275L13.5526 10.4075L17.2226 7.2275C17.8926 6.6475 17.5326 5.5475 16.6526 5.4775L11.8226 5.0675L9.93265 0.6075C9.59265 -0.2025 8.43265 -0.2025 8.09265 0.6075L6.20265 5.0575L1.37265 5.4675C0.492646 5.5375 0.132646 6.6375 0.802646 7.2175L4.47265 10.3975L3.37265 15.1175C3.17265 15.9775 4.10265 16.6575 4.86265 16.1975L9.01265 13.6975Z" fill="#FCFF51"/>
</g>
<g clip-path="url(#clip2_14502_3)">
<path d="M101.013 13.6975L105.163 16.2075C105.923 16.6675 106.853 15.9875 106.653 15.1275L105.553 10.4075L109.223 7.2275C109.893 6.6475 109.533 5.5475 108.653 5.4775L103.823 5.0675L101.933 0.6075C101.593 -0.2025 100.433 -0.2025 100.093 0.6075L98.2026 5.0575L93.3726 5.4675C92.4926 5.5375 92.1326 6.6375 92.8026 7.2175L96.4726 10.3975L95.3726 15.1175C95.1726 15.9775 96.1026 16.6575 96.8626 16.1975L101.013 13.6975Z" fill="#FCFF51"/>
</g>
<defs>
<clipPath id="clip0_14502_3">
<rect width="18" height="17" fill="white" transform="translate(69)"/>
</clipPath>
<clipPath id="clip1_14502_3">
<rect width="18" height="17" fill="white"/>
</clipPath>
<clipPath id="clip2_14502_3">
<rect width="18" height="17" fill="white" transform="translate(92)"/>
</clipPath>
</defs>
</svg>
